<?xml version="1.0" encoding="UTF-8" standalone="no"?>
<svg
   version="1.2"
   viewBox="0 0 1499.2 285.89999"
   width="1499.2"
   height="285.89999"
   id="svg1"
   xmlns="http://www.w3.org/2000/svg"
   xmlns:svg="http://www.w3.org/2000/svg"
   xmlns:rdf="http://www.w3.org/1999/02/22-rdf-syntax-ns#"
   xmlns:cc="http://creativecommons.org/ns#"
   xmlns:dc="http://purl.org/dc/elements/1.1/">
  <defs
     id="defs1" />
  <title
     id="title1">Logos</title>
  <style
     id="style1">
		.s0 { fill: #000000 } 
	</style>
  <path
     id="ICCC"
     class="s0"
     aria-label="ICCC"
     d="m -105.3,-2105 h 97.8 l 84,-420 h -97.8 z m 448.4,7.2 c 73.2,0 133.8,-26.4 173.4,-75 l -62.4,-57.6 c -28.2,33 -63.6,49.8 -105.6,49.8 -78.6,0 -134.4,-55.2 -134.4,-134.4 0,-79.2 55.8,-134.4 134.4,-134.4 42,0 77.4,16.8 105.6,49.2 l 62.4,-57.6 c -39.6,-48 -100.2,-74.4 -172.8,-74.4 -130.8,0 -228,90.6 -228,217.2 0,126.6 97.2,217.2 227.4,217.2 z m 449,0 c 73.2,0 133.8,-26.4 173.4,-75 l -62.4,-57.6 c -28.2,33 -63.6,49.8 -105.6,49.8 -78.6,0 -134.4,-55.2 -134.4,-134.4 0,-79.2 55.8,-134.4 134.4,-134.4 42,0 77.4,16.8 105.6,49.2 l 62.4,-57.6 c -39.6,-48 -100.2,-74.4 -172.8,-74.4 -130.8,0 -228,90.6 -228,217.2 0,126.6 97.2,217.2 227.4,217.2 z m 448,0 c 73.2,0 133.8,-26.4 173.4,-75 l -62.4,-57.6 c -28.2,33 -63.6,49.8 -105.6,49.8 -78.6,0 -134.4,-55.2 -134.4,-134.4 0,-79.2 55.8,-134.4 134.4,-134.4 42,0 77.4,16.8 105.6,49.2 l 62.4,-57.6 c -39.6,-48 -100.2,-74.4 -172.8,-74.4 -130.8,0 -228,90.6 -228,217.2 0,126.6 97.2,217.2 227.4,217.2 z" />
  <path
     id="ICCC Blog   "
     class="s0"
     aria-label="ICCC Blog   "
     d="M 0,219 H 48.9 L 90.9,9 H 42 Z m 223.7,3.6 c 36.6,0 66.9,-13.2 86.7,-37.5 l -31.2,-28.8 c -14.1,16.5 -31.8,24.9 -52.8,24.9 -39.3,0 -67.2,-27.6 -67.2,-67.2 0,-39.6 27.9,-67.2 67.2,-67.2 21,0 38.7,8.4 52.8,24.6 L 310.4,42.6 C 290.6,18.6 260.3,5.4 224,5.4 158.6,5.4 110,50.7 110,114 c 0,63.3 48.6,108.6 113.7,108.6 z m 225,0 c 36.6,0 66.9,-13.2 86.7,-37.5 l -31.2,-28.8 c -14.1,16.5 -31.8,24.9 -52.8,24.9 -39.3,0 -67.2,-27.6 -67.2,-67.2 0,-39.6 27.9,-67.2 67.2,-67.2 21,0 38.7,8.4 52.8,24.6 L 535.4,42.6 C 515.6,18.6 485.3,5.4 449,5.4 383.6,5.4 335,50.7 335,114 c 0,63.3 48.6,108.6 113.7,108.6 z m 224,0 c 36.6,0 66.9,-13.2 86.7,-37.5 l -31.2,-28.8 c -14.1,16.5 -31.8,24.9 -52.8,24.9 -39.3,0 -67.2,-27.6 -67.2,-67.2 0,-39.6 27.9,-67.2 67.2,-67.2 21,0 38.7,8.4 52.8,24.6 L 759.4,42.6 C 739.6,18.6 709.3,5.4 673,5.4 607.6,5.4 559,50.7 559,114 c 0,63.3 48.6,108.6 113.7,108.6 z m 382.6,-58.5 q 0,16.5 -8.4,28.8 -8.4,12.3 -22.8,19.2 -14.1,6.9 -31.2,6.9 H 891.8 V 6 h 105.9 q 15,0 25.8,8.1 11.1,7.8 16.8,20.4 6,12.3 6,25.8 0,15.6 -8.1,29.4 -7.8,13.5 -22.5,20.1 18.3,5.4 28.8,20.1 10.8,14.4 10.8,34.2 z m -27.3,-4.8 q 0,-9.9 -4.5,-18.3 -4.2,-8.4 -11.7,-13.5 -7.2,-5.1 -16.8,-5.1 h -76.2 v 73.2 h 74.1 q 9.9,0 17.7,-5.1 8.1,-5.1 12.6,-13.2 4.8,-8.4 4.8,-18 z M 988.4,29.4 h -69.6 v 71.1 h 67.8 q 9.6,0 16.8,-4.8 7.5,-4.8 11.7,-12.9 4.5,-8.1 4.5,-17.7 0,-10.2 -4.2,-18 -3.9,-8.1 -11.1,-12.9 -6.9,-4.8 -15.9,-4.8 z m 100.8,158.7 V 0 h 26.4 v 178.5 q 0,12.9 3.6,15.9 3.6,3 8.7,3 6.3,0 12,-1.2 5.7,-1.5 9.6,-3 l 4.2,21.6 q -6.6,2.7 -15.6,4.5 -9,1.8 -15.9,1.8 -15.3,0 -24.3,-8.7 -8.7,-8.7 -8.7,-24.3 z M 1243,222 q -17.7,0 -32.1,-6.3 -14.4,-6.6 -24.9,-17.7 -10.5,-11.4 -16.2,-26.1 -5.7,-14.7 -5.7,-30.9 0,-16.5 5.7,-31.2 5.7,-14.7 16.2,-25.8 10.5,-11.4 24.9,-17.7 14.7,-6.6 32.4,-6.6 17.4,0 31.8,6.6 14.4,6.3 24.9,17.7 10.8,11.1 16.5,25.8 5.7,14.7 5.7,31.2 0,16.2 -5.7,30.9 -5.7,14.7 -16.2,26.1 -10.5,11.1 -25.2,17.7 -14.4,6.3 -32.1,6.3 z m -51.9,-80.7 q 0,16.2 6.9,29.4 7.2,13.2 18.9,21 11.7,7.5 26.1,7.5 14.4,0 26.1,-7.8 12,-7.8 18.9,-21 7.2,-13.5 7.2,-29.7 0,-16.2 -7.2,-29.4 -6.9,-13.2 -18.9,-21 -11.7,-7.8 -26.1,-7.8 -14.4,0 -26.1,8.1 -11.7,7.8 -18.9,21 -6.9,13.2 -6.9,29.7 z m 225.9,79.5 q -15.9,0 -29.4,-6.3 -13.2,-6.6 -22.8,-17.7 -9.6,-11.4 -15,-25.8 -5.1,-14.4 -5.1,-30 0,-16.5 5.1,-31.2 5.4,-14.7 15,-25.8 9.9,-11.4 23.1,-17.7 13.2,-6.6 29.4,-6.6 19.5,0 33.9,9.6 14.7,9.6 24.6,24.3 V 62.4 h 23.4 v 154.8 q 0,22.2 -10.8,37.5 -10.5,15.3 -28.8,23.4 -18,7.8 -40.2,7.8 -26.4,0 -43.2,-9.3 -16.8,-9.3 -27.9,-25.2 l 15.3,-13.5 q 9.3,13.8 24,20.7 15,6.9 31.8,6.9 14.4,0 26.4,-5.1 12.3,-5.4 19.5,-16.2 7.5,-10.8 7.5,-27 v -27.6 q -8.7,14.4 -24,22.8 -15,8.4 -31.8,8.4 z m 8.1,-21.6 q 8.4,0 16.2,-3 7.8,-3 14.4,-7.8 6.6,-5.1 11.1,-11.4 4.5,-6.3 6,-12.9 v -45 q -4.2,-10.8 -12,-18.9 -7.8,-8.4 -17.7,-12.9 -9.9,-4.8 -20.4,-4.8 -12,0 -21.6,5.1 -9.3,5.1 -15.9,13.8 -6.6,8.4 -10.2,18.9 -3.6,10.5 -3.6,21.3 0,11.7 4.2,22.2 4.2,10.2 11.4,18.3 7.2,8.1 17.1,12.6 9.9,4.5 21,4.5 z"
     style="fill:#ffffff;fill-opacity:1" />
  <path
     id=".Blog  "
     class="s0"
     aria-label=".Blog  "
     d="m 673.5,-346.2 c 10.8,0 19.8,-8.7 19.8,-20.7 0,-12 -9,-20.4 -19.8,-20.4 -11.1,0 -20.4,8.4 -20.4,20.4 0,12 9.3,20.7 20.4,20.7 z m 206.6,-110.7 c 16.5,-8.1 28.2,-24 28.2,-46.8 0,-33.9 -27,-54.3 -75.3,-54.3 h -94.2 v 210 H 839 c 53.1,0 80.4,-20.7 80.4,-56.7 0,-27.9 -15.6,-45.6 -39.3,-52.2 z m -49.8,-76.8 c 30.6,0 48,11.4 48,33.6 0,22.2 -17.4,33.6 -48,33.6 h -61.5 v -67.2 z m 7.5,161.4 h -69 v -69.9 h 69 c 33.3,0 51.3,10.8 51.3,35.1 0,24.3 -18,34.8 -51.3,34.8 z m 123.8,24.3 h 28.8 v -222.6 h -28.8 z m 152.1,1.8 c 47.7,0 82.5,-33.9 82.5,-81.3 0,-47.4 -34.8,-81 -82.5,-81 -47.7,0 -82.8,33.6 -82.8,81 0,47.4 35.1,81.3 82.8,81.3 z m 0,-25.2 c -30.6,0 -53.7,-22.2 -53.7,-56.1 0,-33.9 23.1,-55.8 53.7,-55.8 30.6,0 53.4,21.9 53.4,55.8 0,33.9 -22.8,56.1 -53.4,56.1 z M 1360.4,-507 v 24.6 c -13.5,-17.4 -35.1,-26.1 -58.8,-26.1 -45.9,0 -80.7,30.9 -80.7,76.8 0,45.9 34.8,77.1 80.7,77.1 22.8,0 43.5,-8.1 57.3,-24.6 v 12.6 c 0,36 -17.1,53.4 -54.6,53.4 -23.4,0 -46.5,-8.1 -61.2,-20.7 l -13.8,22.2 c 17.4,15.6 46.8,23.7 75.9,23.7 54,0 82.5,-25.5 82.5,-81.6 V -507 Z m -55.5,127.2 c -32.1,0 -54.9,-21.3 -54.9,-51.9 0,-30.9 22.8,-51.6 54.9,-51.6 31.8,0 54.6,20.7 54.6,51.6 0,30.6 -22.8,51.9 -54.6,51.9 z" />
  <path
     id="IMPERIAL COLLEGE CYCLING CLUB  "
     class="s0"
     aria-label="IMPERIAL COLLEGE CYCLING CLUB  "
     d="m 360.3,-940 h 20.8 v -112 h -20.8 z m 173.6,0 -0.2,-112 h -17.1 l -43.7,74.2 -44.4,-74.2 h -17.2 v 112 h 19.9 v -73.3 l 36.8,60.5 h 9.3 l 36.8,-61.4 0.1,74.2 z m 76.5,-112 h -46 v 112 h 20.8 v -32.3 h 25.2 c 29.5,0 47.7,-15.2 47.7,-39.9 0,-24.8 -18.2,-39.8 -47.7,-39.8 z m -0.9,62.1 h -24.3 v -44.5 h 24.3 c 18.2,0 27.7,8.2 27.7,22.2 0,14.1 -9.5,22.3 -27.7,22.3 z m 89.7,32.5 v -30.9 h 54 v -17.1 h -54 v -29.2 h 60.9 v -17.4 h -81.7 v 112 h 84 v -17.4 z M 882,-940 856.3,-976.8 c 15.2,-5.9 23.8,-18.4 23.8,-35.4 0,-24.8 -18.2,-39.8 -47.7,-39.8 h -46 v 112 h 20.8 v -32.6 h 25.2 c 1.5,0 2.9,0 4.4,-0.2 l 22.8,32.8 z m -22.8,-72.2 c 0,14.1 -9.5,22.4 -27.7,22.4 h -24.3 v -44.6 h 24.3 c 18.2,0 27.7,8.2 27.7,22.2 z m 44.2,72.2 h 20.8 v -112 h -20.8 z m 134.8,0 h 21.8 l -50.6,-112 h -20.5 l -50.4,112 H 960 l 11,-25.9 h 56 z m -60.2,-42.3 21,-48.9 21.1,48.9 z m 95.3,42.3 h 79.4 v -17.6 h -58.6 v -94.4 h -20.8 z m 191.9,1.6 c 18.4,0 34.1,-6.6 44.5,-18.7 l -13.5,-12.8 c -8.1,8.9 -18.2,13.2 -29.9,13.2 -23.2,0 -40,-16.3 -40,-39.3 0,-23.1 16.8,-39.4 40,-39.4 11.7,0 21.8,4.3 29.9,13.1 l 13.5,-12.6 c -10.4,-12.2 -26.1,-18.7 -44.4,-18.7 -34.4,0 -60,24.1 -60,57.6 0,33.4 25.6,57.6 59.9,57.6 z m 114.5,0 c 34.7,0 60.3,-24.3 60.3,-57.6 0,-33.3 -25.6,-57.6 -60.3,-57.6 -34.8,0 -60.4,24.5 -60.4,57.6 0,33.1 25.6,57.6 60.4,57.6 z m 0,-18.3 c -22.6,0 -39.4,-16.4 -39.4,-39.3 0,-22.9 16.8,-39.4 39.4,-39.4 22.5,0 39.3,16.5 39.3,39.4 0,22.9 -16.8,39.3 -39.3,39.3 z m 82.6,16.7 h 79.4 v -17.6 h -58.6 v -94.4 h -20.8 z m 96,0 h 79.4 v -17.6 h -58.6 v -94.4 h -20.8 z m 116.8,-17.5 v -30.8 h 54.1 v -17.2 h -54.1 v -29.1 h 61 v -17.4 h -81.8 v 112 h 84 v -17.5 z m 161.7,-4.9 c -7.2,4.1 -15,5.7 -23,5.7 -23.7,0 -40.5,-16.6 -40.5,-39.3 0,-23.2 16.8,-39.4 40.6,-39.4 12,0 22.1,4 30.9,12.8 l 13.1,-12.8 c -10.5,-12 -26.2,-18.2 -44.9,-18.2 -35.1,0 -60.7,24.1 -60.7,57.6 0,33.4 25.6,57.6 60.4,57.6 15.8,0 32.1,-4.8 43.8,-14.3 v -44.6 h -19.7 z m 68.3,5 v -30.9 h 54.1 v -17.1 h -54.1 v -29.2 h 61 v -17.4 h -81.8 v 112 h 84 v -17.4 z m -1492.9,179 c 18.4,0 34.1,-6.6 44.5,-18.7 l -13.5,-12.8 c -8.1,8.9 -18.2,13.3 -29.9,13.3 -23.2,0 -40,-16.4 -40,-39.4 0,-23 16.8,-39.4 40,-39.4 11.7,0 21.8,4.4 29.9,13.2 l 13.5,-12.7 c -10.4,-12.1 -26.1,-18.7 -44.4,-18.7 -34.4,0 -60,24.2 -60,57.6 0,33.4 25.6,57.6 59.9,57.6 z M 567.5,-892 H 547 l -33.1,54.6 -32.8,-54.6 h -22.2 l 44,72.8 v 39.2 h 20.8 v -39.5 z m 60.6,113.6 c 18.4,0 34.1,-6.6 44.5,-18.7 l -13.4,-12.8 c -8.2,8.9 -18.3,13.2 -29.9,13.2 -23.2,0 -40,-16.3 -40,-39.3 0,-23.1 16.8,-39.4 40,-39.4 11.6,0 21.7,4.3 29.9,13.1 l 13.4,-12.6 c -10.4,-12.2 -26.1,-18.7 -44.3,-18.7 -34.4,0 -60,24.1 -60,57.6 0,33.4 25.6,57.6 59.8,57.6 z m 64.2,-1.6 h 79.4 v -17.6 H 713.1 V -892 h -20.8 z m 96,0 h 20.8 v -112 h -20.8 z m 129.9,-112 v 75.8 L 856.4,-892 h -17.1 v 112 h 20.6 v -75.9 l 61.8,75.9 h 17.1 v -112 z m 126.6,89.6 c -7.2,4.1 -15,5.7 -23,5.7 -23.7,0 -40.5,-16.6 -40.5,-39.3 0,-23.2 16.8,-39.4 40.6,-39.4 12,0 22.1,4 30.9,12.8 l 13.1,-12.8 c -10.5,-12 -26.2,-18.2 -44.9,-18.2 -35.1,0 -60.7,24.1 -60.7,57.6 0,33.4 25.6,57.6 60.4,57.6 15.8,0 32.1,-4.8 43.8,-14.3 v -44.6 h -19.7 z m 143.4,24 c 18.4,0 34.1,-6.6 44.5,-18.7 l -13.5,-12.8 c -8.1,8.9 -18.2,13.3 -29.9,13.3 -23.2,0 -40,-16.4 -40,-39.4 0,-23 16.8,-39.4 40,-39.4 11.7,0 21.8,4.4 29.9,13.2 l 13.5,-12.7 c -10.4,-12.1 -26.1,-18.7 -44.4,-18.7 -34.4,0 -60,24.2 -60,57.6 0,33.4 25.6,57.6 59.9,57.6 z m 64.1,-1.6 h 79.4 v -17.6 h -58.6 V -892 h -20.8 z m 143.2,1.6 c 30.6,0 49,-17.8 49,-50.4 V -892 H 1424 v 62.4 c 0,23 -10.3,33 -28.3,33 -18.1,0 -28.5,-10 -28.5,-33 V -892 h -20.8 v 63.2 c 0,32.6 18.4,50.4 49.1,50.4 z m 157.2,-59.8 c 8.6,-4.7 14.4,-13.2 14.4,-24.7 0,-17.7 -14.4,-29.1 -41.3,-29.1 h -52.5 v 112 h 55.7 c 28.8,0 43.9,-11.2 43.9,-30.4 0,-14.6 -8.2,-24 -20.2,-27.8 z m -29.1,-37.5 c 14.4,0 22.5,5.1 22.5,15.5 0,10.3 -8.1,15.4 -22.5,15.4 h -29.5 v -30.9 z m 4.2,79.4 h -33.6 v -32.3 h 33.6 c 15.7,0 24.2,4.9 24.2,16.1 0,11.2 -8.5,16.2 -24.2,16.2 z" />
  <path
     id="I"
     class="s0"
     aria-label="I"
     d="m 271.8,-780 h 7.8 l 54.4,-272.1 h -7.8 z" />
  <metadata
     id="metadata1">
    <rdf:RDF>
      <cc:Work
         rdf:about="">
        <dc:title>Logos</dc:title>
      </cc:Work>
    </rdf:RDF>
  </metadata>
</svg>
